name ./resultDataOpenSim/trcMotMarkerGrf/sub10/grf-14-05.mot
datacolumns 19
datarows 22
range 1.45600000 1.54000000
endheader

                time	     ground_force_vx	     ground_force_vy	     ground_force_vz	     ground_force_px	     ground_force_py	     ground_force_pz	   l_ground_force_vx	   l_ground_force_vy	   l_ground_force_vz	   l_ground_force_px	   l_ground_force_py	   l_ground_force_pz	     ground_torque_x	     ground_torque_y	     ground_torque_z	   l_ground_torque_x	   l_ground_torque_y	   l_ground_torque_z	
          1.45600000	          1.15303825	        404.43216010	         -7.50809531	          0.77786588	          0.00000000	          0.02487393	          0.00000000	          0.00000000	          0.00000000	          0.00000000	          0.00000000	          0.00000000	          0.00000000	          2.04802116	          0.00000000	          0.00000000	          0.00000000	          0.00000000	
          1.46000000	          0.17794249	        400.95640281	         -5.68487331	          0.77826656	          0.00000000	          0.02456478	          0.00000000	          0.00000000	          0.00000000	          0.00000000	          0.00000000	          0.00000000	          0.00000000	          2.00777755	          0.00000000	          0.00000000	          0.00000000	          0.00000000	
          1.46400000	         -1.36940322	        398.16047614	         -4.01362679	          0.77881665	          0.00000000	          0.02423229	          0.00000000	          0.00000000	          0.00000000	          0.00000000	          0.00000000	          0.00000000	          0.00000000	          1.97364705	          0.00000000	          0.00000000	          0.00000000	          0.00000000	
          1.46800000	         -2.69813718	        395.95347672	         -2.63116548	          0.77934831	          0.00000000	          0.02390569	          0.00000000	          0.00000000	          0.00000000	          0.00000000	          0.00000000	          0.00000000	          0.00000000	          1.95622636	          0.00000000	          0.00000000	          0.00000000	          0.00000000	
          1.47200000	         -3.10048919	        394.21693375	         -1.62920297	          0.77971452	          0.00000000	          0.02361150	          0.00000000	          0.00000000	          0.00000000	          0.00000000	          0.00000000	          0.00000000	          0.00000000	          1.96272839	          0.00000000	          0.00000000	          0.00000000	          0.00000000	
          1.47600000	         -2.13191081	        392.82360377	         -1.04998574	          0.77980448	          0.00000000	          0.02336724	          0.00000000	          0.00000000	          0.00000000	          0.00000000	          0.00000000	          0.00000000	          0.00000000	          1.99662987	          0.00000000	          0.00000000	          0.00000000	          0.00000000	
          1.48000000	          0.28698024	        391.66771807	         -0.88975012	          0.77956534	          0.00000000	          0.02317941	          0.00000000	          0.00000000	          0.00000000	          0.00000000	          0.00000000	          0.00000000	          0.00000000	          2.05755181	          0.00000000	          0.00000000	          0.00000000	          0.00000000	
          1.48400000	          3.87867479	        390.70585992	         -1.10307787	          0.77902627	          0.00000000	          0.02304743	          0.00000000	          0.00000000	          0.00000000	          0.00000000	          0.00000000	          0.00000000	          0.00000000	          2.14137971	          0.00000000	          0.00000000	          0.00000000	          0.00000000	
          1.48800000	          8.10494486	        389.97355635	         -1.60765540	          0.77827857	          0.00000000	          0.02296612	          0.00000000	          0.00000000	          0.00000000	          0.00000000	          0.00000000	          0.00000000	          0.00000000	          2.24075849	          0.00000000	          0.00000000	          0.00000000	          0.00000000	
          1.49200000	         12.31634492	        389.56694676	         -2.29229539	          0.77746415	          0.00000000	          0.02292402	          0.00000000	          0.00000000	          0.00000000	          0.00000000	          0.00000000	          0.00000000	          0.00000000	          2.34603994	          0.00000000	          0.00000000	          0.00000000	          0.00000000	
          1.49600000	         15.92703435	        389.61486031	         -3.02690486	          0.77673525	          0.00000000	          0.02290883	          0.00000000	          0.00000000	          0.00000000	          0.00000000	          0.00000000	          0.00000000	          0.00000000	          2.44659199	          0.00000000	          0.00000000	          0.00000000	          0.00000000	
          1.50000000	         18.57363858	        390.25625596	         -3.67710713	          0.77618697	          0.00000000	          0.02291064	          0.00000000	          0.00000000	          0.00000000	          0.00000000	          0.00000000	          0.00000000	          0.00000000	          2.53228912	          0.00000000	          0.00000000	          0.00000000	          0.00000000	
          1.50400000	         20.20609503	        391.62050452	         -4.12728338	          0.77585710	          0.00000000	          0.02291781	          0.00000000	          0.00000000	          0.00000000	          0.00000000	          0.00000000	          0.00000000	          0.00000000	          2.59505443	          0.00000000	          0.00000000	          0.00000000	          0.00000000	
          1.50800000	         21.07927228	        393.80969902	         -4.30515009	          0.77568417	          0.00000000	          0.02291697	          0.00000000	          0.00000000	          0.00000000	          0.00000000	          0.00000000	          0.00000000	          0.00000000	          2.63036902	          0.00000000	          0.00000000	          0.00000000	          0.00000000	
          1.51200000	         21.66358011	        396.89709368	         -4.19941479	          0.77558686	          0.00000000	          0.02289964	          0.00000000	          0.00000000	          0.00000000	          0.00000000	          0.00000000	          0.00000000	          0.00000000	          2.63858185	          0.00000000	          0.00000000	          0.00000000	          0.00000000	
          1.51600000	         22.51083995	        400.93756280	         -3.86588575	          0.77548593	          0.00000000	          0.02286060	          0.00000000	          0.00000000	          0.00000000	          0.00000000	          0.00000000	          0.00000000	          0.00000000	          2.62567594	          0.00000000	          0.00000000	          0.00000000	          0.00000000	
          1.52000000	         24.10116647	        405.95973504	         -3.41906932	          0.77530731	          0.00000000	          0.02279380	          0.00000000	          0.00000000	          0.00000000	          0.00000000	          0.00000000	          0.00000000	          0.00000000	          2.60304948	          0.00000000	          0.00000000	          0.00000000	          0.00000000	
          1.52400000	         26.71088376	        411.94711946	         -3.01110251	          0.77499983	          0.00000000	          0.02270229	          0.00000000	          0.00000000	          0.00000000	          0.00000000	          0.00000000	          0.00000000	          0.00000000	          2.58604576	          0.00000000	          0.00000000	          0.00000000	          0.00000000	
          1.52800000	         30.34632883	        418.84118591	         -2.80313402	          0.77455683	          0.00000000	          0.02259208	          0.00000000	          0.00000000	          0.00000000	          0.00000000	          0.00000000	          0.00000000	          0.00000000	          2.59135895	          0.00000000	          0.00000000	          0.00000000	          0.00000000	
          1.53200000	         34.75917525	        426.56633675	         -2.93364916	          0.77401523	          0.00000000	          0.02246498	          0.00000000	          0.00000000	          0.00000000	          0.00000000	          0.00000000	          0.00000000	          0.00000000	          2.63381918	          0.00000000	          0.00000000	          0.00000000	          0.00000000	
          1.53600000	         39.52772686	        435.05436671	         -3.48734195	          0.77344983	          0.00000000	          0.02232193	          0.00000000	          0.00000000	          0.00000000	          0.00000000	          0.00000000	          0.00000000	          0.00000000	          2.72326275	          0.00000000	          0.00000000	          0.00000000	          0.00000000	
          1.54000000	         44.17801925	        444.25639867	         -4.47283888	          0.77295337	          0.00000000	          0.02216328	          0.00000000	          0.00000000	          0.00000000	          0.00000000	          0.00000000	          0.00000000	          0.00000000	          2.86219792	          0.00000000	          0.00000000	          0.00000000	          0.00000000	
